<svg xmlns="http://www.w3.org/2000/svg" width="25.417" height="27.349" viewBox="0 0 25.417 27.349">
  <path id="e715baca5a733d24522aae793babe3fe" d="M12.139,25.239a1.243,1.243,0,0,0-1.468-1.222c-1.627.3-3.681.343-4.227-1.191a7.093,7.093,0,0,0-2.283-3,1.492,1.492,0,0,1-.207-.136,1.243,1.243,0,0,0-1.157-.8H2.792a1.242,1.242,0,0,0-1.243,1.237c0,1.013,1.008,1.663,1.419,1.882a5.519,5.519,0,0,1,1.148,1.689c.453,1.272,1.768,3.2,5.55,2.953,0,.044,0,.085,0,.123l.005.333a1.243,1.243,0,1,0,2.486,0l-.006-.4C12.148,26.472,12.139,26.131,12.139,25.239ZM25.4,6.44c.039-.155.078-.328.112-.522A7.8,7.8,0,0,0,25,1.826a1.245,1.245,0,0,0-.765-.721c-.442-.149-2.076-.443-5.2,1.553a17.236,17.236,0,0,0-7.9,0C8.028.691,6.4.958,5.965,1.1a1.24,1.24,0,0,0-.785.726A7.83,7.83,0,0,0,4.679,6c.03.159.063.306.1.441A7.791,7.791,0,0,0,3.216,11.2a10.466,10.466,0,0,0,.053,1.146c.415,5.72,4.143,7.437,6.741,8.027-.054.155-.1.322-.147.5a1.243,1.243,0,1,0,2.414.595,2.086,2.086,0,0,1,.581-1.091A1.242,1.242,0,0,0,12.18,18.2c-4.293-.49-6.156-2.239-6.437-6.088A8.216,8.216,0,0,1,5.7,11.2,5.291,5.291,0,0,1,6.844,7.824a3.756,3.756,0,0,1,.243-.288,1.243,1.243,0,0,0,.234-1.273,4.21,4.21,0,0,1-.193-.691,5.087,5.087,0,0,1,.1-2.007,9.374,9.374,0,0,1,3,1.466,1.254,1.254,0,0,0,1.029.165,14.637,14.637,0,0,1,7.672,0,1.25,1.25,0,0,0,1.032-.171,9.41,9.41,0,0,1,2.989-1.479,5.021,5.021,0,0,1,.109,1.961,3.983,3.983,0,0,1-.21.755,1.243,1.243,0,0,0,.234,1.273c.1.108.192.225.278.334A5.123,5.123,0,0,1,24.48,11.2a8.747,8.747,0,0,1-.047.966c-.274,3.8-2.145,5.548-6.457,6.039a1.243,1.243,0,0,0-.678,2.17,2.027,2.027,0,0,1,.58,1.129,3.8,3.8,0,0,1,.115,1.018v2.9c-.012.8-.012,1.408-.012,1.685a1.243,1.243,0,1,0,2.486,0c0-.269,0-.86.012-1.665v-2.92a6.067,6.067,0,0,0-.192-1.63,5.29,5.29,0,0,0-.144-.517,8.094,8.094,0,0,0,6.767-7.983,10.808,10.808,0,0,0,.057-1.192A7.619,7.619,0,0,0,25.4,6.44Z" transform="translate(-1.549 -0.997)" fill="#ccc"/>
</svg>
