<svg xmlns="http://www.w3.org/2000/svg" width="26.004" height="26" viewBox="0 0 26.004 26">
  <g id="in_linkedin_portfolio_social_media" data-name="in linkedin portfolio social media" transform="translate(-3 -3)">
    <path id="Path_2" data-name="Path 2" d="M6.5,3A3.5,3.5,0,1,0,10,6.5,3.5,3.5,0,0,0,6.5,3Zm0,5A1.5,1.5,0,1,1,8,6.5,1.5,1.5,0,0,1,6.5,8ZM9,11H4a1,1,0,0,0,0,2H8V27H5V16a1,1,0,0,0-2,0V28a1,1,0,0,0,1,1H9a1,1,0,0,0,1-1V12A1,1,0,0,0,9,11Zm18.34,1.68A5.94,5.94,0,0,0,23,11H22a7.84,7.84,0,0,0-4,.89A1,1,0,0,0,17,11H12a1,1,0,0,0-1,1V28a1,1,0,0,0,1,1h5a1,1,0,0,0,1-1V19a2,2,0,0,1,4,0v9a1,1,0,0,0,1,1h5a1,1,0,0,0,1-1V17a5.9,5.9,0,0,0-1.66-4.32ZM27,27H24V19a4,4,0,0,0-8,0v8H13V13h3v1a1.006,1.006,0,0,0,1.71.71c.95-1,1.7-1.71,4.29-1.71h1a3.738,3.738,0,0,1,4,4Z" fill="#ccc"/>
  </g>
</svg>
