<svg xmlns="http://www.w3.org/2000/svg" width="32.682" height="26.146" viewBox="0 0 32.682 26.146">
  <path id="_19383cfb3233364e8007a170ab275492" data-name="19383cfb3233364e8007a170ab275492" d="M29.78,4H6.9A4.9,4.9,0,0,0,2,8.9V25.243a4.9,4.9,0,0,0,4.9,4.9H29.78a4.9,4.9,0,0,0,4.9-4.9V8.9A4.9,4.9,0,0,0,29.78,4Zm-.67,3.268L19.5,16.877a1.634,1.634,0,0,1-2.32,0L7.572,7.268Zm2.3,17.975a1.634,1.634,0,0,1-1.634,1.634H6.9a1.634,1.634,0,0,1-1.634-1.634V9.572l9.608,9.608a4.9,4.9,0,0,0,6.929,0l9.608-9.608Z" transform="translate(-2 -4)" fill="#ccc"/>
</svg>
